
        <svg xmlns="http://www.w3.org/2000/svg" xmlns:xlink="http://www.w3.org/1999/xlink" version="1.1" width="3181.8181818181824" 
        height="851.0864847494239" viewBox="0 0 3181.8181818181824 851.0864847494239">
			
			<g transform="scale(9.090909090909092) translate(10, 10)">
				<defs id="SvgjsDefs1879"></defs><g id="SvgjsG1880" featureKey="symbolFeature-0" transform="matrix(0.6665965966305353,0,0,0.6665965966305353,0,-3.5994111574100742)" fill="#b6c6d3"><g xmlns="http://www.w3.org/2000/svg"><path fill="#b6c6d3" d="M83.5,36.8c-3.7,0-6.6,2.9-6.6,6.6c0,1.4,0.5,2.8,1.3,3.8c-2.9,2.9-7.3,6.1-12.6,6.4   c-6.3,0.3-12.7-3.4-19-11.2c-7-8.7-14.3-12.9-21.8-12.4c-6.6,0.4-11.9,4.2-15.2,7.5c-0.9-0.4-1.8-0.6-2.8-0.6C3,36.8,0,39.7,0,43.4   c0,3.6,3,6.6,6.6,6.6c3.7,0,6.6-2.9,6.6-6.6c0-1.4-0.5-2.7-1.3-3.8c3-2.9,7.4-6.1,12.8-6.4c6.4-0.4,12.8,3.4,19.1,11.2   c6.7,8.3,13.7,12.5,20.8,12.5c0.3,0,0.7,0,1,0c6.5-0.4,11.7-4.2,15-7.5c0.8,0.4,1.8,0.6,2.8,0.6c3.7,0,6.6-2.9,6.6-6.6   C90.2,39.7,87.2,36.8,83.5,36.8z"></path><ellipse fill="#b6c6d3" cx="24.4" cy="15" rx="6.6" ry="6.6"></ellipse><ellipse fill="#b6c6d3" cx="63.7" cy="72.9" rx="6.6" ry="6.6"></ellipse></g></g><g id="SvgjsG1881" featureKey="nameFeature-0" transform="matrix(1.5656311847281392,0,0,1.5656311847281392,73.11122263788596,-15.906811104839285)" fill="#0f4c81"><path d="M14.44 22.92 l5.28 0 q4.4 0 4.4 -4.24 q0 -2.2 -1.1 -3.18 t-3.3 -0.98 l-10.96 0 l0 9.6 q1.24 -0.72 2.8 -1 q1.16 -0.2 2.88 -0.2 z M8.76 40 l-4.36 0 l0 -29.84 l15.32 0 q2.64 0 4.6 1.02 t3.04 2.94 t1.08 4.54 t-1.08 4.58 t-3.06 3.02 t-4.58 1.06 l-5.28 0 q-3.44 0 -5.68 1.2 l0 11.48 z M57.040000000000006 14.559999999999999 l-10.52 0 l0 25.44 l-4.24 0 l0 -25.44 l-10.64 0 l0 -4.4 l25.4 0 l0 4.4 z M66.96000000000001 26.8 l0 13.2 l-4.32 0 l0 -29.84 l4.32 0 l0 12.24 q1.6 -0.8 3.8 -0.8 q0.8 0 3.88 0.36 q4.32 0.52 5.84 0.52 q2.32 0 4.04 -0.76 l0 -11.56 l4.36 0 l0 29.84 l-4.36 0 l0 -13.88 q-1.72 0.76 -4.04 0.76 q-1.52 0 -5.84 -0.52 q-3.08 -0.36 -3.88 -0.36 q-2.2 0 -3.8 0.8 z M130.52 10.16 l4.6 0 l-9.52 29.84 l-4.72 0 l-5.76 -17.64 l-5.6 17.64 l-4.72 0 l-10.12 -29.84 l4.48 0 l7.92 22.32 l5.6 -17.6 l-1.52 -4.72 l4.48 0 l7.52 22.32 z M150.8 23.28 q2.68 -2.8 4.84 -6.24 t3.44 -6.88 l5 0 q-2.04 4.76 -4.96 9.12 q-2.64 3.96 -6.16 7.8 l0 12.92 l-4.32 0 l0 -12.92 q-3.52 -3.84 -6.16 -7.8 q-2.92 -4.36 -4.96 -9.12 l5 0 q1.28 3.44 3.44 6.88 t4.84 6.24 z"></path></g><g id="SvgjsG1882" featureKey="sloganFeature-0" transform="matrix(0.45714872456510325,0,0,0.45714872456510325,79.30513394738047,64.36682324187197)" fill="#a18e82"><path d="M1.52 6 l5.8 0 c2.94 0 5.04 1.96 5.04 4.7 s-2.12 4.72 -5.04 4.72 l-2.76 0 l0 4.58 l-3.04 0 l0 -14 z M4.56 12.8 l2.72 0 c1.16 0 2.02 -0.9 2.02 -2.12 c0 -1.2 -0.86 -2.06 -2.02 -2.06 l-2.72 0 l0 4.18 z M37.188 20 l0 -14 l3.04 0 l0 11.38 l6.28 0 l0 2.62 l-9.32 0 z M75.15599999999999 6 l3 0 l5.4 14 l-3.22 0 l-0.96 -2.66 l-5.46 0 l-0.94 2.66 l-3.22 0 z M76.65599999999999 9.7 l-1.8 5.02 l3.58 0 z M120.08399999999997 6 l0 14 l-3.04 0 l-6 -9.08 l0 9.08 l-3.04 0 l0 -14 l3.04 0 l6 9.06 l0 -9.06 l3.04 0 z M206.608 8.4 c-0.94 0 -2.1 0.32 -2.1 1.46 c0 1.04 1.52 1.3 3.02 1.66 c2.18 0.52 4.74 1.3 4.74 4.38 c0 2.92 -2.58 4.34 -5.22 4.34 c-2.18 0 -4.42 -0.76 -6.04 -2.22 l1.68 -2.2 c1.16 1.06 2.7 1.8 4.3 1.8 c1.08 0 2.22 -0.3 2.22 -1.6 c0 -1.34 -1.94 -1.54 -3.88 -2.06 s-3.88 -1.36 -3.88 -3.94 c0 -2.82 2.54 -4.26 5.1 -4.26 c1.88 0 3.72 0.68 5.22 1.8 l-1.48 2.3 c-1.06 -0.82 -2.32 -1.46 -3.68 -1.46 z M240.236 6 l0 5.92 l5.66 0 l0 -5.92 l3.04 0 l0 14 l-3.04 0 l0 -5.46 l-5.66 0 l0 5.46 l-3.04 0 l0 -14 l3.04 0 z M278.784 6 l3 0 l5.4 14 l-3.22 0 l-0.96 -2.66 l-5.46 0 l-0.94 2.66 l-3.22 0 z M280.284 9.7 l-1.8 5.02 l3.58 0 z M319.592 20 l-2.5 -4.7 l-2.42 0 l0 4.7 l-3.04 0 l0 -14 l5.96 0 c3 0 5.12 1.92 5.12 4.6 c0 1.86 -1.04 3.38 -2.64 4.16 l2.92 5.24 l-3.4 0 z M314.67199999999997 12.68 l2.84 0 c1.22 0 2.12 -0.86 2.12 -2.02 s-0.92 -2.04 -2.12 -2.04 l-2.84 0 l0 4.06 z M357.63999999999993 17.38 l0 2.62 l-9.68 0 l0 -14 l9.5 0 l0 2.62 l-6.46 0 l0 3.04 l5.96 0 l0 2.62 l-5.96 0 l0 3.1 l6.64 0 z M438.96399999999994 20 l0 -14 l3.04 0 l0 11.38 l6.28 0 l0 2.62 l-9.32 0 z M476.01199999999994 6 l0 14 l-3.04 0 l0 -14 l3.04 0 z M508.85999999999996 20 l-3 0 l-5.4 -14 l3.26 0 l3.64 10.12 l3.64 -10.12 l3.26 0 z M548.388 17.38 l0 2.62 l-9.68 0 l0 -14 l9.5 0 l0 2.62 l-6.46 0 l0 3.04 l5.96 0 l0 2.62 l-5.96 0 l0 3.1 l6.64 0 z"></path></g>
			</g>
		</svg>
	